/* XPM */
static char *result[] = {
/* columns rows colors chars-per-pixel */
"50 50 90 1 ",
"  c #36312D",
". c #3E352E",
"X c #3F382F",
"o c #363332",
"O c #3C3533",
"+ c #3F3935",
"@ c #353338",
"# c #3F3638",
"$ c #41372D",
"% c #41392F",
"& c #413632",
"* c #433A33",
"= c #4A3F34",
"- c #413638",
"; c #453D39",
": c #4C3F39",
"> c #4C4137",
", c #4D4239",
"< c #504437",
"1 c #52463A",
"2 c #55493C",
"3 c #564B41",
"4 c #594E43",
"5 c #5F5145",
"6 c #5F554B",
"7 c #635646",
"8 c #63574A",
"9 c #66594B",
"0 c #695C4C",
"q c #665C53",
"w c #695E52",
"e c #6A6158",
"r c #77685B",
"t c #7A6C5D",
"y c #7D6E61",
"u c #7F7464",
"i c #826F67",
"p c #837565",
"a c #877867",
"s c #84776B",
"d c #88776F",
"f c #877969",
"g c #897B6B",
"h c #8C7D71",
"j c #907E71",
"k c #93846D",
"l c #9C886F",
"z c #948572",
"x c #978871",
"c c #9C8B73",
"v c #94897B",
"b c #9C8C7B",
"n c #9F9177",
"m c #9E917C",
"M c #A18D75",
"N c #A28F7A",
"B c #A49277",
"V c #A3927D",
"C c #A9967C",
"Z c #AE9A7C",
"A c #B1977B",
"S c #B49A7E",
"D c #9C8D81",
"F c #A39281",
"G c #AB9683",
"H c #AD9A83",
"J c #AF9C89",
"K c #B19782",
"L c #B59C82",
"P c #B99E84",
"I c #B39E8A",
"U c #BA9E89",
"Y c #B49E91",
"T c #ACA08B",
"R c #B6A184",
"E c #BBA286",
"W c #B5A38B",
"Q c #BDA48A",
"! c #BDA98B",
"~ c #B6A191",
"^ c #BBA493",
"/ c #BFA890",
"( c #C1A68C",
") c #C3A98E",
"_ c #C3A691",
"` c #C4AB91",
"' c #C9AD95",
"] c #C9AE98",
"[ c #C6B095",
"{ c #C9B092",
/* pixels */
"o+>>3,::>121><:1431122,1>1231,,>122>12>11,352,1,-o",
" 3uvvkDvkxmbxvjkcxkxcxkxkxnmcccxcbxkbbxcckcBcxbzu;",
"OqvJ~GI^ZTSERWKGRRCSWSLERCRWRRRCSRACRRZRRBZWRRRGD3",
"O9mWWI/]SS{E!!IKQQSW!ER`EL!!E!!SU(LSQ)RQ!SR[WE!GD>",
";emW!PQ'PE{E()UL``LQ)UP)PP))EQQP()UA((S(QL('PE)ID>",
"+em!)R!'EP)))'PS(`U('PP((P({Q`_LE)EP()L()KP'_)_GD+",
"-wnW)S{{EP((()PS()SE)E()PS((()`U()PS('E)(SP))()LD>",
"#qn!)E{)SP))))PS))SE)(()(P((E()P()SS()E)(AS)(()PD,",
"#0mW!S)'PQ)((`QP)(SE)EE)(S()Q((SE{ESE(U((LE)(Q)IF>",
"Oen!!S({UU_)Q`UU`_UQ)ES)(P_`(_QLQ'QU((KQ(IE'_Q_KD>",
"+0n!(S(_KU]'((PL`_P()US)UP_'_`_PE)(S_(LQ_LU`_W_GD,",
"X0n!ES(]UU`_()ES)(S((SS)(S()(((L({SSQ(LQ(SE))E)HD,",
"X9bQQS/]UU')Q(PS)!S((SS))S()Q(ES){SS((S((SP))E)ZF>",
"+0B))S/!UQ)(Q)EP()S({EE)!S()(()SS)(S()S(QSE))E)Zm*",
"+9nQ)U`[PR))_`WP((S()ES)ES)())(SS{SS((E((SE))Q)IV=",
"+0MQ(E``PR))``WP{)S()E({(E)((()E({(SE(E)(SE{)E)HV=",
"&0N()R![RE)(/`RL({S()(P)(S()(((S()(S)(S()S())E)HV=",
"&0N(`W//RE{```ES()S()PP)(P()())P()PS))P()SP))('LV=",
"#0M(_Q`[SE))]]!L))EE)(()(S({)))P(((S()()(SP))!'KN=",
"#0cQ_Q/`SS(/``WP))SE((({(S()())P()PS()()(SP)QE'IN=",
"#9cE(U/[!S{)_`WP))SP)(P)(())(()PE)ES((P()PE)(E_PN=",
"O9M()LW'S!{)/`PP))S()SA((P()(((S()(S((SP)SP{((QZb>",
"O7MQ)R!{SS!)Q/RL((E()EP(SS({)))SE(ES((S((SS))((LN2",
"O7MQ!R!{SS{)``RS))P()PL((S()())P()SS(ES((SP))((LV2",
"O8M(QKU`!S{)!)IS()P()PS)(S()(((SE)EP((S((PP)(EQHV2",
"O9N((U_)SS{)!)RL((PE)EP)(S({(((SE(PPE(S((SP)(E!LV2",
"O8MQ(U`/SE)))`!L()PE)QE)(P()(()PE)ES((S((SP)(E(PV1",
"O7MQ(I!`SE)(Q)RL()SE)UP)ES()(()S()ES((P()PP')EQIG2",
".7MQ)Q('RE))()QS){PE'QE)EP(`(((SE'EP((S((SP')E)IG2",
"#9B()PW`EP'{()(S()P()ES)QU('(()PE)QP()E()SE)((`LV2",
"+7lQ)U'[EL(__'QS()PE'QU`(P(_(`'PE'PS()Q)(SP)((`IV2",
"+7lE)!``PL_``'QS()PP)QE'QP(`())PE)PS()E)(SP)QQ`PV2",
"#7ME(P)[EE_)Q'(P))PP)PP'(U()_`_PE)ELE(S()SP)(()SV2",
"O7M()SE[EE`_Q_PS))(('PS(QL(`Q()LE]EPE(SE(PP))()LV2",
"O7MEQS!/PP''`)SS()PE)PS(EL(_/_(LE'US((SE(SS'(Q)IV2",
"O7lEQL!`LLQ`))EP))SP(PE)QU(`Q`QLE)ES((S((AS)(Q!LV2",
"O7l((AE[UP__(_PL((PE(PS)(U_`(((PE)PSE(SE)SP)QE)IV2",
".7M()S!)LP'_Q_ES()LE)EP(EUQ_Q_`KU)USE(SEQPP)(E(LV2",
"O7cE)(('PP'(()ES()LQ)EP(QL(`Q_`LE)PSE(P((PP)(E(LV1",
" 7lE(S))PP'_()ES()PE)EU)QL(_((QPE)ES((P((SP)(EQIV1",
"$7lE)R!!EP'_('PS()PE)EP)(I/`(Q)SE'ELE)PE)SP)(E(IG>",
"O7M()R!{EP('(_(S))PE`EP`(PQ`QQ(PP'ES((P()PP)(E(LC>",
"O7lE)E![PP))))(A))PE'(E)QLQ'_)`UE)PAE)E()SP)(E(PV1",
"O7lP)E{[RS)_()(S()PU)(E)(KQ`QQ)UE'PAE)E()SS)(Q(WF1",
"O7lP)S){UL__('PL()LP)EP'(LQ_Q/`UE{EAQ)PE)SS)(E)IF1",
".4bE)ZS{EU_]Q(LAQ`UE`PSQQLQ'QQQLP)(S)QAE)SS)(E(Pm6",
"#4bR!ZE(UL__^(UAQ!PEQILW!HE`Q/(KP_ESQQLE(AG)_WQHD6",
"O3kTTCJWIGY^Y^ICTWCHTCBLJGH~WEICGWINJJGH^GGIIW~GD8",
"@,euutpkfidhdgaiagaaaitafipgaggpshfusfypgurttrtee*",
"@@+*+%**&&-***$$**%**$$%*$%*%*&$.*%+*...*..+***X+ "
};
