/* XPM */
static char * tatame_north_texture_xpm[] = {
"50 50 176 2",
"  	c None",
". 	c #8B8E7D",
"+ 	c #85826C",
"@ 	c #837D62",
"# 	c #938C72",
"$ 	c #8C896D",
"% 	c #939071",
"& 	c #333122",
"* 	c #464331",
"= 	c #4C4B39",
"- 	c #4C4B33",
"; 	c #4C4A2E",
"> 	c #524E39",
", 	c #54513C",
"' 	c #4B4631",
") 	c #474B32",
"! 	c #514B34",
"~ 	c #B5B394",
"{ 	c #ADAC85",
"] 	c #CECAA1",
"^ 	c #B5B285",
"/ 	c #CCC99D",
"( 	c #B4AC82",
"_ 	c #CBC5A1",
": 	c #BFB994",
"< 	c #C4C093",
"[ 	c #ABA87B",
"} 	c #BDB791",
"| 	c #534B2B",
"1 	c #C6BDA0",
"2 	c #C5BE9A",
"3 	c #CBC49C",
"4 	c #CDC294",
"5 	c #C3BC93",
"6 	c #BDBA8D",
"7 	c #BCB38B",
"8 	c #C5BA8C",
"9 	c #D4CA9D",
"0 	c #D1CAA0",
"a 	c #D8CBA1",
"b 	c #C5C19A",
"c 	c #BFB883",
"d 	c #9D935D",
"e 	c #C4BA85",
"f 	c #A4966A",
"g 	c #C4B689",
"h 	c #B6AA7A",
"i 	c #A59A65",
"j 	c #A7A274",
"k 	c #453812",
"l 	c #8A7C59",
"m 	c #A59772",
"n 	c #AB9E72",
"o 	c #B3A67A",
"p 	c #BBAD7B",
"q 	c #A69A6B",
"r 	c #BCAD82",
"s 	c #BDB282",
"t 	c #ADA273",
"u 	c #B5A975",
"v 	c #A99B66",
"w 	c #B2A36E",
"x 	c #ADA26C",
"y 	c #9E9262",
"z 	c #AB9D6B",
"A 	c #8B866B",
"B 	c #D3CFA9",
"C 	c #B3A573",
"D 	c #BDB17C",
"E 	c #B0A86A",
"F 	c #4E411A",
"G 	c #A08E66",
"H 	c #C1AE81",
"I 	c #C3B483",
"J 	c #C1B37E",
"K 	c #B8A679",
"L 	c #CAB585",
"M 	c #C9BA85",
"N 	c #B9AB75",
"O 	c #CABC8B",
"P 	c #CBBD92",
"Q 	c #857E6B",
"R 	c #A59C73",
"S 	c #C5B97F",
"T 	c #4D4114",
"U 	c #ADA47B",
"V 	c #BAA674",
"W 	c #B09F72",
"X 	c #B09F6C",
"Y 	c #AA9664",
"Z 	c #857C5E",
"` 	c #DCD3B6",
" .	c #DAC598",
"..	c #4B3D13",
"+.	c #92855A",
"@.	c #AC9E79",
"#.	c #BBB174",
"$.	c #D0BB8E",
"%.	c #C9B789",
"&.	c #D2C396",
"*.	c #8C8363",
"=.	c #AC976A",
"-.	c #A39664",
";.	c #46390D",
">.	c #928556",
",.	c #AEA467",
"'.	c #B09C67",
").	c #C2AE7D",
"!.	c #968A5D",
"~.	c #C8C082",
"{.	c #CCC18D",
"].	c #C0B176",
"^.	c #9A9472",
"/.	c #C3B791",
"(.	c #8F8159",
"_.	c #8F8A67",
":.	c #878264",
"<.	c #9F966F",
"[.	c #483A0B",
"}.	c #8D7D54",
"|.	c #D1C28D",
"1.	c #938C65",
"2.	c #4B452B",
"3.	c #55491D",
"4.	c #9B8C62",
"5.	c #3E330B",
"6.	c #43360D",
"7.	c #53451C",
"8.	c #524316",
"9.	c #594C1D",
"0.	c #3D361A",
"a.	c #4C3E19",
"b.	c #948661",
"c.	c #8E8155",
"d.	c #9F8D69",
"e.	c #857551",
"f.	c #897B4E",
"g.	c #433C24",
"h.	c #544623",
"i.	c #D3C59A",
"j.	c #443F29",
"k.	c #4D5139",
"l.	c #5D4C29",
"m.	c #695B34",
"n.	c #494225",
"o.	c #574922",
"p.	c #45492E",
"q.	c #5A4C23",
"r.	c #655730",
"s.	c #45432B",
"t.	c #433C1E",
"u.	c #5E5125",
"v.	c #45401F",
"w.	c #474026",
"x.	c #97926C",
"y.	c #877C51",
"z.	c #9B8C5E",
"A.	c #443611",
"B.	c #7F7246",
"C.	c #604E28",
"D.	c #614D23",
"E.	c #62542C",
"F.	c #D1BF94",
"G.	c #A4935F",
"H.	c #DBCA9C",
"I.	c #A49B7A",
"J.	c #8C8B71",
"K.	c #9E9D7E",
"L.	c #3D3B23",
"M.	c #393C2C",
"N.	c #4A3F26",
"O.	c #3E381E",
"P.	c #9C957B",
"Q.	c #938C6D",
"R.	c #8D8672",
"S.	c #3A372C",
"                                                                                                    ",
"    . + @ + @ # # $ $ + % $ + + & * = * - - - - ; > * > , - > ' - = - ) = = ; - ' ! - ! > , -       ",
"  = ~ { ] ^ / ( _ : < [ / ^ } : | # 1 2 3 3 4 3 5 2 3 2 2 _ 3 ] ] ] 6 7 : 5 8 < 8 3 9 0 a / 5 ~     ",
"  * b [ c d e f g h [ i e j h ^ k l m f n o h p f q r r g s f f t u i v w x y i u x z u u q t g A   ",
"  ; B [ c x s C p D h E e x u D F G r H g I J s s I n K I H g p s I p J L M N N J e J n C e O P Q   ",
"  ! } R D i D N p p p w S x p p T G g p C z x u f z z x U z w C C V W X X V V V V X X w V Y v o Z   ",
"  = ` U n u  .f r h u u e x s s ..+.@.u D D D #.x h O M #.p z C H H L $.L S L L L L L %.%.I %.&.*.  ",
"  ! 2 R g =.g W H o h N O -.h o ;.>.t x E x ,.-.x u x u #.u #.u =.Y w '.Y Y X w v v '.w N N x n #   ",
"  ' _ U e u ).n %.u D u #.,.u u ;.!.7 O c e c ~.{.{.c [ h o D p D ).L L ].].L M S M S u u N {.9 ^.  ",
"  ! /.h D u N i M u #.,.#.,.E h T (.n t w u t x x i t t q y C t t u u E x u D u N x u #.D C N r _.  ",
"  - } j D i M x M D D E ~.#.N D ..!.r p ).D D I I h t p I p p h h h u o u p s h u u h D c h s ^ :.  ",
"  - 2 <.D v M C p D D x ~.u E N ..+.K N ).u w w v J p z w J e u s [ o h u i x x h D h C t j o [ _.  ",
"  - b { c C p z r c h ,.D u h s [.}.u E V V #.#.#.w N |.S w N D p D D e e c M {.M D D e e e {.3 1.  ",
"  2._ [ g C e W K D h x D C D h ;.+.u C z ,.E D S N z ,.v v ,.,.x u x x x w w v w x x C z v x p _.  ",
"  2.2 q g v O C K U u E e x o j 3.4.[ s I {.c e D e 6 4 8 D h 8 D I N C p p ).u V D J p w K p P :.  ",
"  = ~ n p -.L z I u N u D x D R F _.<.U q D j t [ j j [ q t [ j t u n w N V u p N K V J p K N g Z   ",
"  ; ] C e V p z e N D x O x s h k 5.5.F ;.T ..T T ..6.F 5...;.7.F [.3...8.9.[.[.[.[.8.8.8.9.[.F 0.  ",
"  ) _ t H W N z D w p D K f e n ..a.b.4.}.+.c.!.!.}.+.d.<.b.+.l 7.F e.c.!.+.+.>.!.>.c.>.c.+.f.b.g.  ",
"  = b z ).z C U N u u N p C s q a...7 h /.s P s 9 g 8 r &.h 7 8 a.h.r h g D i.^  .%.P r &.s g P j.  ",
"  k.b n I z W h N #.w u p o s n F 7.3 t /.y s q c h r n 8 m r r l.a.P n g i e f g o r q P z u r 2.  ",
"  k._ o L X C h p x #.D C v O t a.l.i.o O z e u D r s U P t p o m.F i.t P f h t D p p o I t z h n.  ",
"  k._ p I W p r p x N p D z O U 8.l.P t h u C t D p s t s z p o 3.o.i.n h N s h r r r u %.x N 7 |   ",
"  p./ s p V I p p x E u I u O x k q.0 h C t I D x u D u e x D D o.r.a t C u g v h C p z M v D p h.  ",
"  s.3 D K V g D J ,.p p N U {.f k 7.P o s v O d e u h u e x D u 3.7.P h s f {.v p u p C I ,.#.p n.  ",
"  p.3 q ).v p x s ,.I N u h D q ..7.i.t p N N i e w h D D x h x 7.F 9 q s h D v I u N x %.v u h t.  ",
"  p.< q p v ).x |.,.C x N s %.t T q.s x U x u i {.N h u D x D u 3.7.g n p t D ,.e p D w M ,.N u t.  ",
"  p./ C S v I z e u u u p s e x ..u.8 C {.x O ,.e D D C e N D u 3.h./.m s z e x I J s ,.{.,.N u v.  ",
"  ) / D e z I z D #.N N u C e h ;.u./.y M i {.q D s s t 8 u D u h.o.4 f g z {.x D D D z e u N u w.  ",
"  k.< x N v I x e p u N N h I o k r.P q M t e x h D D x s U D h 3.q.4 C s C e q p D N v M E N D w.  ",
"  ; < z N '.N t I u #.p p o D j 6.7.P u 4 x D f u p h n e t h h 7.a.&.C 8 x e t N u C v J w u o n.  ",
"  p.< i J N V x e x #.w C t p z ..7.8 q O i O u D u o o 8 t C t 7...P z P v O C N o u z J w w t n.  ",
"  p.5 v J ).C C p d N u h C p y ..o.g t p z {.h g h o o g n t n F o.g f r y O z D p N C I w C n 2.  ",
"  - x.y.z.4.}.}.!.d c.>.!.(.f }.A.a.4.}.1.+.B.c.f 4.+.+.+.b.c.b.A.q.P o r N p =.I C p u I =.I n j.  ",
"  s.| 5.8.C.C.q.D.3.8.T 3.u.u.3.3.h.h.o.E.l.o.7.T 7.9.u.q.l.7.h.h.l.F.n r u p '.J =.J r u =.O o j.  ",
"  # 2 9 {.P F. .P &.I {.4 O i.4 {.a r g %.g 8 %.P &.&.&.4 F.g 8 e.l.P n H -.z p D C u N C z p @.j.  ",
"  $ ^.q t K r K f v p N h D z.-.t o o C C z f n h C n z n o C r b.E.i.f I ,.w u p u o p D C r o j.  ",
"  # 6 s e H H g H ).z C p s D D p p I r g O I M I s p r p e I i.+.l.9 h L N E N u -.N I t y p R j.  ",
"  # ^ x x i t C -.G.w ,.z u v w u u v u x N ,.v V x z X f v f H >.3.&.J p ,.u M D z N p p y r U j.  ",
"  :.j C D s I K V J I S #.C u w J I J $.J L M I J S I L J L I  .+.9.&.V w w M ].w v n z H C g U j.  ",
"  $ t u E ,.W =.'.v N N p p J ,.v G.V w G.-.w w v '.z w w p C K z...L p u w S N ].X p p K C %.m g.  ",
"  % 6 c e I I 8 |.S S J u N ).].].].|.].J w M S S ).M p w J %.H.z.D. .=.M G.S V M v %.H K ).g @.g.  ",
"  + j x t K C V X G.E ,.-.-.w w w w p w N V N u u ,.p J I J K H f.a.$.Y V G.].w $.=.p =.H H %.m g.  ",
"  _.^ [ #.p r H H ).w u J p w N I J u w N N V D N u p u N ).K L }.D. .S ).V ].'.J X ).=.H K L I.g.  ",
"  J.^ h D N n f f J p ,.h J p w p o C z z ,.x w ,.w u z C u C N 4.D.$.W V '.].,.V X H V ).W L @.g.  ",
"  $ { U u h r r r x N %.p C I p I p I e g D M I O I S M &.O g &.4.7.$.W ).'.].w I X H I H H F.@.g.  ",
"  $ { [ j n ( r r h C C f n N f o f n t C t N ,.C w z z n z o I 4.a. .W ).v p C M v o H C @.H n j.  ",
"  . { ^ 6 P P /.g 4 g g g h g 8 I r o o p r s h w N r p C t r g l 7.F.p L u C v M x I r o K H n g.  ",
"    K.j [ U @.R R j m [ ( m o U U ( U U o 7 h ^ ( u [ r o U r /.*.h.7 m o e o [ p f r R o o ( I.L.  ",
"  M.L.s.p.N.N.g.g.w.O.g.j.j.g.g.g.t.O.g.s.n.s.w.O.t.w.n.n.n.n.2.g.' P.@ ^.Q.@ Z # Q.:.1.*.A $ R.S.  ",
"                                                                                                    "};
