/* XPM */
static char *result[] = {
/* columns rows colors chars-per-pixel */
"50 50 86 1 ",
"  c #22120E",
". c #2C1F16",
"X c #2A211F",
"o c #372613",
"O c #2F2621",
"+ c #312721",
"@ c #332922",
"# c #392D26",
"$ c #3B302A",
"% c #41362F",
"& c #4C3B2B",
"* c #503E2B",
"= c #463A33",
"- c #493C34",
"; c #473D38",
": c #4F4437",
"> c #4E4339",
", c #50443A",
"< c #564A3F",
"1 c #574B41",
"2 c #594D42",
"3 c #5B5145",
"4 c #5F5349",
"5 c #615244",
"6 c #635A47",
"7 c #635649",
"8 c #65594C",
"9 c #695D4E",
"0 c #675950",
"q c #695D51",
"w c #6D6255",
"e c #6E6358",
"r c #766A56",
"t c #75665D",
"y c #766A5D",
"u c #796B5C",
"i c #7E715D",
"p c #7D6D63",
"a c #7E7062",
"s c #81715D",
"d c #837364",
"f c #82766C",
"g c #958775",
"h c #9B8776",
"j c #968875",
"k c #9B8A76",
"l c #988779",
"z c #968978",
"x c #9C8B7A",
"c c #A2927B",
"v c #9F9183",
"b c #A79586",
"n c #AA9685",
"m c #AB9886",
"M c #AA9789",
"N c #AD9A89",
"B c #B99F85",
"V c #BA9F89",
"C c #B7A284",
"Z c #BCA386",
"A c #BCA887",
"S c #B6A48C",
"D c #BDA58A",
"F c #B7A88E",
"G c #BDA98C",
"H c #B5A592",
"J c #BCA592",
"K c #B7A891",
"L c #BDAB93",
"P c #BEAC9A",
"I c #BDB09D",
"U c #C1A586",
"Y c #C2A886",
"T c #C2A68B",
"R c #C2A98D",
"E c #C8AA8F",
"W c #C2A691",
"Q c #C3AC93",
"! c #C8AD94",
"~ c #C2AD9A",
"^ c #C8AE9B",
"/ c #C5B195",
"( c #C8B196",
") c #C6B29C",
"_ c #CAB19A",
"` c #C7B3A1",
/* pixels */
"#755770887878784X<8888868688888887888786887877700@",
"q^TE!!^!^Q)GQ/QC:c))QQQ!QQQ!QRR/Q!///R!(!RR!Q!!)I4",
"0^TWWDTTRAQCDAAn-kSZBDDVZZDZZSZZZZVDZADZDAZZVUBDH2",
"0^TTWDDURDQCGZDM-cQTATRRTTRRRRRRRRRRRRRQRRQRQWRWL2",
"0^TTWGDDTTWDTGZm-cLADDDDDDRAAARRDRDDTDDRTARGTRTRK2",
"0^TE!GRTRDQSGYYN-cWTDDRADDRDTADRATARADARARDYRTTRK4",
"0^TWWDRTTRLZTYZm-cADVBZZBZDZZBDDDBVDDBVDDBDZDDVVG2",
"0^TTQDTUUGQZZZZM-xFAUDADDDVRADDRDADRRAARRDDTDTTRL2",
"0^ETWKRZTRWCZYAM;cDVVZDDZZDBDDDZBDZDDZDDDDZDDVVDS2",
"0^TTWDRTTRLDTTTN-cWTADDTARTADADRRRRDRATADTARTRTRK4",
"0^TW!GTTRDQZTATm-cWADDAADDARATARDDDTDARTRDARTTTRG2",
"0^TEWDDUTDLZUZZm-cDVZZDDDDTDDDDDDDAADDDDDDTADDDTS2",
"0^TTWVRUTRQCAZAm-xGZBBZZBBVDVZZDZZDDDZZDZZZZDVBVS3",
"0^TTWVTUTDLCYTZM;xKAZZDDZZDTDZDADZADZZSGDZSDDJDRH2",
"0^TT!WTUTDWZTTRM;vJWTUTTDDTVVDTDGCRUZAGAGSAGHJJLH2",
"0^TTWDDVTRQZTUDb=fvlxhxhhhxxxhhlzxjhxjzxxxlllvllz>",
"0^TTWSTUYRRCTZZb%#oo@@@OO@OO+OOO. ===;=;;;;&&-**=.",
"0^TTWDTYYSQCUTAN=fKDJDGSSGVVHDJHt,`~J^J~PJW~JWWWH1",
"0^TRWDTYRD/CZUYm=zQWEUERRTETTTW!u:!WVWVWTTTQDJDDS>",
"0^TWQDUBTRWCUUTc=zQREEUUTEETETT~r,JDU!ZRZZURVWVDH1",
"0^TTDGDZTDWCUZZn=gQGRYTTYRRYTTTWp;~DFQDLSGAQZTDVS1",
"0^VEWGDUUDQCZTTn=jQTQYRRRRRRTTRPd;~JDWDWGGARVTTDS2",
"0^TEWLYUEDQCTZDn=jQYQRQRWQWQQWW~p;^WTQUWRRTEUTTTS2",
"0^VTWDAZUYRCZTDn=j!TERRRRRWRRWJ~p,WWT!VRDWDQDTTVS1",
"0^UTTVDUYTWCZADn=kWTRYYARRQTTDR~y,~DV!VRAAGQDDDDS1",
"0^VTWTDUUURCZTVn=k!TQRRERRUEYRRLy,WRUQZTAGZRVJTDS1",
"0^UTEYUUYZEZUUAn=h!TEEQRRRQQTWW~y,QWTQTRRRZEDDRDK1",
"0^UTUYEcAZUBUZGM=h/YRTYYTRURRARWy>PWUEVRDTZQADTDD1",
"0^DQWVTBSDGZSCSb=h~SRGGYARAGZGALy>LRTQDTDUZRZGDBD1",
"0^DGQTDAGDJVDDKM;h~YRYRRYRYRYRTLt>PDURZTTVURSDVZV1",
"0^ZZDGDSAZTVZZGM&xQGRTTTATTYTTTLt>!WVQTTDTARDDDDD1",
"q)L(~PQR/Q_RQGWN;x)Q_(!_!_^(!!(`p>WEV!VRTRURDDDDD1",
"-dsdddduspddpudq+0aadppdpppputut,>LDV!VTTTZEZSZZV1",
"$q888088680000qqwq0qqq9qqqwwwwet,:KRU!VUZDAEZZABD1",
"qIGSKJKFFFLJKKLKHHLASFFFSGFGFFKPt<^DUWDTTTZEBGDDD1",
"4LZSSFGZAAWJVAGDJDDTZYYGAGYGAZGQd;P!UQZTTDZRDDTDD2",
"8LZZADZAATVJTTTUDWAZZYZAZZZYAZAKu,QGDQZTDTARZDDVD<",
"q)DD!WTEYQWWEQTRWWQEQQRRQRRQRRR~a,LWUQVDZAYRZGSBS2",
"4/ADDDDZZDDDDDADDDADAYAUYZYAYZZAu>LGVRUTATZRZDTZS<",
"6LAGVDASDAJDDDDDDDTATATTTZUYTZULy,QWUQDRADZRCTAZS1",
"8FDDDRASDJJDDWJDJRJDDDUGDDATUDRLu>JDTWDRDDDRZDDBS1",
"8LCDDZZDDDTDDVWDVDDTDDGSDDRTAZDLp,PGV!VJDDARZDDBS1",
"6GZDDZADVTDVDTDVATDDDFGGGDDADDAKy>~WUWDTJWDRVDDDS1",
"8/ARWRAGQTRRTQTWRQWYWWWQWRRQTRR~i,WWU!DDTTVRDDTDS2",
"6LAADDSDZAAAZYGZZGGZDRWDADTTTUTWu>LGTEZYZAZRSJTVH2",
"8GASVDADZZZCZZAZZAAZDDDDDDUZZZZDr:GZTRBTZAZYBDVDN1",
"8LCDVDDSZZSZCZZSCZZSDDDDDDDDVDAKy>/GBRBRZAZGVVDVS1",
"7KDDVDDGCFGASZGSZSSHVDDSDDJDDDRLy>LDDRSDDGSJDJDDS1",
"9/G!WWWQLLPLLLLLLLLLPL~QLL)LQLLIa,I)Q_W)LQW(QQ!DP2",
"#6477777777777447774444447474784$+q87878787878857@"
};
