/* XPM */
static char *result[] = {
/* columns rows colors chars-per-pixel */
"50 50 20 1 ",
"  c #968457",
". c #968459",
"X c #99865B",
"o c #9C8B5E",
"O c #9D905F",
"+ c #9E8D61",
"@ c #9F9163",
"# c #9F9369",
"$ c #A08F62",
"% c #A39265",
"& c #A89666",
"* c #A69569",
"= c #A8966A",
"- c #A6986C",
"; c #AA9A6D",
": c #AD9D71",
"> c #B09E72",
", c #AFA073",
"< c #B2A275",
"1 c #B3A479",
/* pixels */
"--*-#=%=#=#=####=#*$****#+%@-*++*+%$%+$o%%%$+@O%%O",
"#%@%#*%#$#=##$$#$#$$@@+%*+@++*+%+++$++o$o+%$ooooOo",
"::::>:>;>:>;>=>>:::=:-::*---;;-:%;=:;=*;;&;&&%&&;&",
"--*:=**=#:=;$*====##*#***@-*==%$****=+$*%&&%%%%&&@",
":===*-*-==*=**==**#==%-*-#****=#&*%%&&%%%%%&$%%%%%",
"1111>,1111>>>>111>>>1>>::>>>>>>>;<,,,;;<,,;,;,<<;;",
"+#%*%%+#$=$$$#$$#$$$$$$+%+%+%$$+%X%OooooOOoooooOOo",
"#:#==**=$==***$=**%*=%***%%%%*$%&$%%&%%%$$&%O&O$%O",
"*:=::*=*==>*=*====*%====***=&;$=%&&*&%%&&&*%%%%%*%",
"*##==#****=*$***=*$%****%$$$$=$$@%@%%+$%@%%%@o+%%O",
"::=:::=====:===:=:=:====:*====;&*&;%;&**&%**&&%*%*",
"::>>=:>:>:::;=>>::==:::*=;=:;=;;&,**;**;;;&**&;-*&",
"#=*=*%**#:$$==$=*%%%&%*+%%&+=%%%&@%%%o@%%@O%+%o%%o",
"#:*====;*=:======***&&*&&&*&=&%%&%&&&O&&%%&%+&%&%+",
"###**$*$$$=$$+$$%*$$$%%%++o++%++X@o$%oXo@o@ooooo@o",
"=**=;**#**=*$=====$$*%&*@&%%&&%%%%&&%@%%%%&o%o%%&+",
"::::::*:;;=:=:;;=;=>;;=;:===;==&&;;&;%&&*&*;&&%&*#",
"%-**%*******=$;%**$$;$*$***$&$%%$&O%%+%&@%%+%@+@+#",
":::,-:;::>:;:=;>>;;:;;>==;;=;;&;&;;;&&;;;;&&*&&;**",
"%-&*%%%&$=&=$$%&=$$$&$&$$$&$;%o$%o&%%ooo%@++o%o%$X",
"+++$%$++$$$$$ooo$$$X$Xo$OOoXo%XoXoo++oXXXX+o.XXX+X",
";=;:;&;;==>&;&;;;=*=====%&&&&;&&%&&&&%%=&&*%&%%%*$",
"-&*;;&%*-&&&$&&&==$*=*%=&%%%&&%O&%$&&+$&%%%%$%$%$$",
"%*%%%*%*$*$*%%%%$*%%%$%$&@%o%$%%$$++$++$o++%o$o++$",
"1111:><<1<<;<;<<>>;><><;;<,<>;;>;>>;:;>>::==;:>>==",
"+$$%+$o%X%$%o%o%$OOoo$$oOXoo$$oo+.++$XXX$$X$.X.$+X",
"%%$%%%$%@%%%%%o%%$OO%O@%%o+oo&oO$+++$$+XX$$$X$XX+X",
"-*&;;&;&*;;%&&&;;&&%&&&&%&&%&&&&$*%*%%$**$=$$$*##$",
"*%$-*%$%%%%&+$$%&%+%%%%%o@o@%%oo$$$$%XX$$$$X++X$$+",
"=&==*&&&&&&*&&=&&&%&&&%%;%&&&%&%%%%+%%%%$$$*%#$$$#",
":;:<=:>:>>>;;&;>>;;;;;,&;;*;;**;*:===**=;;***#==##",
"$&$*$$$%+%$$$%O&$+o+%o%o$o%o%@oo%X%$X$+$$XX$X+X$+X",
"-&*&&%%*%&&*&%%&*%%%&%%%%%&%%%$$%$%$$+$+$$%++%o$$+",
"$$*%&$%%@%&$%o$%%%$o$%$%+ooo$%o$o$o%++X++++oXooo#X",
"%%%%*$%%%%&%oo%%*%+$O+%%o+o%$$$+o$$$++++o++o+Xo+$X",
":;&;;;*;&;&;&;*;&;&;&;&*;%&&=&=$&%*%*%%*%%**$*$*$#",
"*&**%**&-%%%*%&%&%$$&#&@%%%*$%$=+%$%$++*$$++++++++",
"&=*:***=&;&%*&*-*%*%***@@&%%**$$*%%%@%$%*$+$%%+*+#",
"%&%*%%$&O&&%%%+*&%O%%@%%%+%O%$$$%o%$+.++$++++$++$X",
"+o++$ooooo$ooXooOooXoXXooXXXX$XX X.o++..X.+.....X.",
"-*&;;%&&&&*&%%&***$**%&&$%$%**$%$$###$$#$##+$+$$#+",
"*&&&&&%&&&&&%%*&**$&%%%%*%$%*#%$*$*#*X$$$#%$$$+#$#",
"%%$%$%$$@O%%%o%++$$$$++o$$$+X$$$X+X++XX$X+++XXXX+X",
"::<1;;>>,,;;,*,:;==::;,*-:--:=#;*>=:===>;=##;==:##",
"+$+%++X$o%$OXoX%$+X++$+X+.+.++..+.XXXXXX+XXX.XX+X.",
"+$oo++OOoo$oOooo$$XX+XX$+X+.+$.+XXXXXXXXXX+X.X..X.",
"&&&;;%&&&&;%&&&;**%$%%**$%$$*#+@$#=*$$$*#$#$$##+#X",
"%&+&%%O%$O%%Xo%o$$++$+$$$+++++++X$$X$XX+X+$XXXXX#X",
"%%%%%*%%@%+%%+%@+%$$$+++%+++++++$$+X$+++#XX#++X++X",
"::,:-;:;:::-;*,:;;-;;::-----:-*-#>==#==#==####==##"
};
