/* XPM */
static char *result[] = {
/* columns rows colors chars-per-pixel */
"128 128 47 1 ",
"  c #010101",
". c #0B0703",
"X c #0D0A06",
"o c #0D0D0D",
"O c #150E07",
"+ c #120E09",
"@ c #151007",
"# c #16110A",
"$ c #1A140A",
"% c #1F180E",
"& c #141414",
"* c #1B1611",
"= c #1F1911",
"- c #1C1B1B",
"; c #231C0D",
": c #281A0F",
"> c #231D14",
", c #2B1C11",
"< c #241F19",
"1 c #2A220F",
"2 c #262017",
"3 c #2A2314",
"4 c #26211A",
"5 c #2B251B",
"6 c #2E291D",
"7 c #322215",
"8 c #372619",
"9 c #332D1D",
"0 c #232323",
"q c #2C2622",
"w c #2F2921",
"e c #2B2B2B",
"r c #332D24",
"t c #352F29",
"y c #373127",
"u c #3A3424",
"i c #373129",
"p c #3B352C",
"a c #3E382F",
"s c #333333",
"d c #3F3930",
"f c #3B3B3B",
"g c #423C2D",
"h c #403A31",
"j c #474232",
"k c #484233",
"l c None",
/* pixels */
"56eee60<<-0008022022--0000200>--024200-00000000-00-*-5040e0-<02-4<00-40>>000-30>>0>2--0000200=--022200-00000000-00->-2-*-4--&-%&",
"esfyieq505qeere4e9e550e5000e00506020ee0e6ee40024qee6e6w00qe55e00eee540<<04500902050220e40-ee00505e>0es0e60e5e06q6e050550-<03>-&&",
"sfffsssee00045406000<255<<e4q50006<<s0e555<-esweweweesse0rrw0eqseeee0eeee00054-->000*=444=040500054<s0e555000t50q0600ee-0>2<&-$4",
"ssfste6e0-<<<<2222-=->->-=0<0<<-0e250<0*-4weessessysswe0<0ee50eeee04>04e---4544222-=-=-*-$020>4-0e22020=-<<00e000020e<0-*---=-0-",
"etssr<<-*&&*>>#>&-->-2--72e-%&$$---&&--00ssrsysseseue005>0<--0000---2>2-=--*<2>2-002060-2>0&%&*#--&&&--&&0->-*-----2---=#&&&&-&-",
"qsie0-#&$$&o#o#;&-&&&4$&,-;*#&o&&$#o-00etsfsrsse66ee0-==&*&&-&===-%-&&*&>=&-,*<>00000e>0802&#ooo&#$&&-o&$&-&#-&-$$-0&&$$+#&&&o##",
"eefe-&Ooo$$$&&&&&;o&$&#O##&#o+oo&&$5rereeispie000--3=o&-$&+&*$$&&---&&+oo$$$-----3--,02=->-=&#oo&&#$$o$oo$&;-&o&&o&;##o&%#+o$#$&",
"6ee5>&#oo&&&&&&&&-#&&-#OO+$##&$&#4sisffrre590-*--o-&#&&&$oo$&ooo$&&##&##&&&&&&----%---,*$*,>=&#&##&$&&&$$o+:-&#&&&&-$&&-#&&$-#o&",
"0e05>&&o&o+-00-oOOOO0-&#oX@;0-$0ettsass6e502-$&&oo#&#&&#oXoXoo.oXoXXo&&o&o#-&-&o@&%&$$%$*-%>$&=3&+X+e0$;&@o7e<&:+X@%e0%&&&&-$oo&",
"0eee=$&--&$&-f0;*&&$0f-#O+O@<etsfkses052*&$;&oo##&%&oX   lllllllllllllllll.o#--$%#++-,&&=&&&->%---$o-e&&O@&-0s-o&;-$-s-&>&*&$-o#",
"00e0&&&--%--&;e$:$&o#;t$&%#%0rspsss60--=#oo#&##&o.  llllllllllllllllllllllllllXo##o&@-$@$$&-->&=&--$o&e&OO&;&Oe--%4-.O0%-<->-$$$",
"4ee0-&-$&--&@&@-&O&$o@+----efpaesr0<=--&OoO&XX   lllllllllllllllllllllllllllllllllo+&&@&-&-&-%$&-=&=$+&-O&@oO#&0o&%%Oo+0-00<&o&o",
"4e00&$&&%*-0&&&&;&>0#OX+O0effsses4-%oO-&ooo   llllllllllllllllllllllllllllllllllllll oo&oo-&-&&&0%&%&$&#Ooo-$#XO&&--&&&#0e04&&o#",
"2450&$&--$s0%-%&;Oe-%%$-wifpsi000--@#&-&o  llllllllllllllllllllllllllllllllllllllllllll##$&#&#o&&--%$-0&ooe$$;+;;$t-;#&&>0y<&oo$",
"05<<>#&&-t&&%40&&e;$1&-resdsee5>-&&&&#o  llllllllllllllllllllllllllllllllllllllllllllllll&$&o-$$-----$--&0oO+$-$%f-o%$&&-00-&&o$",
"<00<-&+&0&o+O-0$0&o;00rffhsrw-=&o#&#O  llllllllllllllllllllllllllllllllllllllllllllllllllll###$&o$&$$&$--$++#-$;<&+&%%oo0e52&&o$",
"--0-*oO$Oo&&0-3$#o&;sphhpete<*####+  llllllllllllllllllllllllllllllllllllllllllllllllllllllll&#$$#@&-*&&&+&+-&--$+@&e0&O<eee-&#&",
"0e5<&&+$&o;$-t-:OO$<psspst5>*o++#X  llllllllllllllllllllllllllllllllllllllllllllllllllllllllllX&#$++$&&$$$&&&0&$&&;&0e-&0500-&&&",
"0e04&*$&--;&&&e#O&<ehhpte>&#$+$o  llllllllllllllllllllllllllllllllllllllllllllllllllllllllllllll&@#%&&0-&&&#*&0oo;&&OOt-846<=$&&",
"-64->&#&--&%&O$0-0sfshi0->&#&&o  llllllllllllllllllllllllllllllllllllllllllllllllllllllllllllllll##&#---&$&&o&+&Oo;o&&;0ee00=$$*",
"-0--&*o0;o0-&#@&0ssdtse<-oo#&. lllllllllllllllllllllllllllllllllllllllllllllllllllllllllllllllllll+&&<-&o&&&&&&#oo--&-o#0e02&*#$",
"5062&$$&o&f&&&o<shfhse<*#$&#  llllllllllllllllllllllllllllllllllllllllllllllllllllllllllllllllllllll&$$&+o$&#-##&#0&--:&<56<&$@&",
"<05<&&$&oso&&o&ehhdtr-&#o#o  llllllllllllllllllllllllllllllllllllllllllllllllllllllllllllllllllllllll#$o&o$&&o%#&-OO$$-&2550-*&&",
"<<00:o$-0O#&-*tfhhtr0##&#o  llllllllllllllllllllllllllllllllllllllllllllllllllllllllllllllllllllllllll$&o#&--o+#$&XXO-$o25600&-@",
"<050--&&@oO$0esfase-&&o&o  llllllllllllllllllllllllllllllllllllllllllllllllllllllllllllllllllllllllllll&$-$-#&$&#-#o0&&@2550--&#",
"--500&-&$&o:0spfse<>#ooo  llllllllllllllllllllllllllllllllllllllllllllllllllllllllllllllllllllllllllllll#-;1-oo&&$#o&e&$20520&&$",
"0-ee-$&&--$>shfpt2*+O##  llllllllllllllllllllllllllllllllllllllllllllllllllllllllllllllllllllllllllllllll&-;&#&-&&&&oo0#2e02--&&",
"000e-#&---&qfhfse-$#o#  llllllllllllllllllllllllllllllllllllllllllllllllllllllllllllllllllllllllllllllllll&-%&-*&$#&&.o-44e6--$&",
"6e00>$$&&&qpffe0-&&&#  llllllllllllllllllllllllllllllllllllllllllllllllllllllllllllllllllllllllllllllllllll*%&%$-$$$$#o&00050&$&",
"405<&#-;$-esasw<*&&#. lllllllllllllllllllllllllllllllllllllllllllllllllllllllllllllllllllllllllllllllllllll#%#--0&$$-&@o-0200&$-",
"2000>#;;&esssw0$&&#X lllllllllllllllllllllllllllllllllllllllllllllllllllllllllllllllllllllllllllllllllllllllo%---$@$$$---2-2%&&-",
">052%#;&eisse0-&##X lllllllllllllllllllllllllllllllllllllllllllllllllllllllllllllllllllllllllllllllllllllllll%%%%&$$##&&%>20%-&#",
"2e00=$#&ryseq-=&&o  llllllllllllllllllllllllllllllllllllllllllllllllllllllllllllllllllllllllllllllllllllllllll%-%&&&$$@+&=-%%#$&",
"0ee0=$&eysss0-$&&. lllllllllllllllllllllllllllllllllllllllllllllllllllllllllllllllllllllllllllllllllllllllllll&-&%&-$$$O&&--%#$&",
"20e0%&&sspi6<*&#& lllllllllllllllllllllllllllllllllllllllllllllllllllllllllllllllllllllllllllllllllllllllllllll*&-3--$###&=-&-&&",
"2e5>=#esfse2-%&&  llllllllllllllllllllllllllllllllllllllllllllllllllllllllllllllllllllllllllllllllllllllllllllll>&-%&-##&#-*-&&&",
"0552%#rpis50#&&X lllllllllllllllllllllllllllllllllllllllllllllllllllllllllllllllllllllllllllllllllllllllllllllll&&%--&o&o&&*&#o&",
"255-%4ypsw>=$#& lllllllllllllllllllllllllllllllllllllllllllllllllllllllllllllllllllllllllllllllllllllllllllllllll;&%-%&o$#%=#oo$",
"0e5>&eesse>oooo lllllllllllllllllllllllllllllllllllllllllllllllllllllllllllllllllllllllllllllllllllllllllllllllll-&--=&&#$%*&&&&",
"29e0essse5-$oo lllllllllllllllllllllllllllllllllllllllllllllllllllllllllllllllllllllllllllllllllllllllllllllllllll&,%&&&$$&##@##",
"2509yssgi0=##+ lllllllllllllllllllllllllllllllllllllllllllllllllllllllllllllllllllllllllllllllllllllllllllllllllll&00&=%$$&&+Xo&",
"2050eese0-1%& lllllllllllllllllllllllllllllllllllllllllllllllllllllllllllllllllllllllllllllllllllllllllllllllllllll-0-=&#X$-&oo@",
"-500seee0*&&o lllllllllllllllllllllllllllllllllllllllllllllllllllllllllllllllllllllllllllllllllllllllllllllllllllll=&--&&&@ooXXo",
"-44rie00&#&&.lllllllllllllllllllllllllllllllllllllllllllllllllllllllllllllllllllllllllllllllllllllllllllllllllllllll;->-&&$oooXX",
"-00wrr5*&oo& lllllllllllllllllllllllllllllllllllllllllllllllllllllllllllllllllllllllllllllllllllllllllllllllllllllll&3>*=--&$oo@",
"00weys6--o&X lllllllllllllllllllllllllllllllllllllllllllllllllllllllllllllllllllllllllllllllllllllllllllllllllllllll&0<--%&&$o.X",
"-0eeee0-### lllllllllllllllllllllllllllllllllllllllllllllllllllllllllllllllllllllllllllllllllllllllllllllllllllllllll>2-&--oo#X@",
"-0ssew-=o+X lllllllllllllllllllllllllllllllllllllllllllllllllllllllllllllllllllllllllllllllllllllllllllllllllllllllll-0----&$&oX",
"-eyss6>-o+o lllllllllllllllllllllllllllllllllllllllllllllllllllllllllllllllllllllllllllllllllllllllllllllllllllllllll---,-&-&#@X",
"2wese0-oo# lllllllllllllllllllllllllllllllllllllllllllllllllllllllllllllllllllllllllllllllllllllllllllllllllllllllllll0<00%&&$oo",
"20esw2%o## lllllllllllllllllllllllllllllllllllllllllllllllllllllllllllllllllllllllllllllllllllllllllllllllllllllllllll000>&%-oo.",
"-0ew02&o$+ lllllllllllllllllllllllllllllllllllllllllllllllllllllllllllllllllllllllllllllllllllllllllllllllllllllllllll=0>2&&oo#X",
"-0sw0=-&&Xllllllllllllllllllllllllllllllllllllllllllllllllllllllllllllllllllllllllllllllllllllllllllllllllllllllllllll-00>-%$#oo",
"50e60=&#&.lllllllllllllllllllllllllllllllllllllllllllllllllllllllllllllllllllllllllllllllllllllllllllllllllllllllllllll00000-&-o",
"00e00&oo$ lllllllllllllllllllllllllllllllllllllllllllllllllllllllllllllllllllllllllllllllllllllllllllllllllllllllllllll<20--1&&&",
"qw65>&o&o lllllllllllllllllllllllllllllllllllllllllllllllllllllllllllllllllllllllllllllllllllllllllllllllllllllllllllll00-0-&&##",
"eee4-&&#& lllllllllllllllllllllllllllllllllllllllllllllllllllllllllllllllllllllllllllllllllllllllllllllllllllllllllllll2-00&$&&#",
"2060&o#-ollllllllllllllllllllllllllllllllllllllllllllllllllllllllllllllllllllllllllllllllllllllllllllllllllllllllllllll-0-2%oooo",
"<00-=&#&&llllllllllllllllllllllllllllllllllllllllllllllllllllllllllllllllllllllllllllllllllllllllllllllllllllllllllllll-200=&oo&",
"-0e4>$o$.llllllllllllllllllllllllllllllllllllllllllllllllllllllllllllllllllllllllllllllllllllllllllllllllllllllllllllll-50-&&#$o",
"2e0--oo$Xllllllllllllllllllllllllllllllllllllllllllllllllllllllllllllllllllllllllllllllllllllllllllllllllllllllllllllll<0e-%&o&$",
"050-#&oOXllllllllllllllllllllllllllllllllllllllllllllllllllllllllllllllllllllllllllllllllllllllllllllllllllllllllllllll2500-&$o$",
"055-=o&#ollllllllllllllllllllllllllllllllllllllllllllllllllllllllllllllllllllllllllllllllllllllllllllllllllllllllllllll052-&&$o-",
"000-&-&-ollllllllllllllllllllllllllllllllllllllllllllllllllllllllllllllllllllllllllllllllllllllllllllllllllllllllllllll*0e0&&&&#",
"24e0&#&OXllllllllllllllllllllllllllllllllllllllllllllllllllllllllllllllllllllllllllllllllllllllllllllllllllllllllllllll-000&&&#&",
"0ee2>oOOollllllllllllllllllllllllllllllllllllllllllllllllllllllllllllllllllllllllllllllllllllllllllllllllllllllllllllll0060$$&oo",
"ee00&&&&ollllllllllllllllllllllllllllllllllllllllllllllllllllllllllllllllllllllllllllllllllllllllllllllllllllllllllllll--5<>&&%-",
"00e-$&#&Xllllllllllllllllllllllllllllllllllllllllllllllllllllllllllllllllllllllllllllllllllllllllllllllllllllllllllllll0<00-#&--",
"00<->+#oXllllllllllllllllllllllllllllllllllllllllllllllllllllllllllllllllllllllllllllllllllllllllllllllllllllllllllllll4<0--&&&&",
"2e40&oOoXllllllllllllllllllllllllllllllllllllllllllllllllllllllllllllllllllllllllllllllllllllllllllllllllllllllllllllll5<q-&&+$$",
"00e0&&+oollllllllllllllllllllllllllllllllllllllllllllllllllllllllllllllllllllllllllllllllllllllllllllllllllllllllllllll060<&$$$&",
"5e0<>&#&ollllllllllllllllllllllllllllllllllllllllllllllllllllllllllllllllllllllllllllllllllllllllllllllllllllllllllllll050-=&ooo",
"-e0<;-&o&llllllllllllllllllllllllllllllllllllllllllllllllllllllllllllllllllllllllllllllllllllllllllllllllllllllllllllll200--$&oo",
"00ee$$&-&llllllllllllllllllllllllllllllllllllllllllllllllllllllllllllllllllllllllllllllllllllllllllllllllllllllllllllller0<&*&o+",
"00e0--&-&Xlllllllllllllllllllllllllllllllllllllllllllllllllllllllllllllllllllllllllllllllllllllllllllllllllllllllllllllqeq-=-$#+",
"<000---$$ollllllllllllllllllllllllllllllllllllllllllllllllllllllllllllllllllllllllllllllllllllllllllllllllllllllllllll5etee-oooX",
">000-%&&$&llllllllllllllllllllllllllllllllllllllllllllllllllllllllllllllllllllllllllllllllllllllllllllllllllllllllllll0eee0-oooX",
"><20-*-&&&llllllllllllllllllllllllllllllllllllllllllllllllllllllllllllllllllllllllllllllllllllllllllllllllllllllllllll0ere5*o&oX",
"0>=2<>---& lllllllllllllllllllllllllllllllllllllllllllllllllllllllllllllllllllllllllllllllllllllllllllllllllllllllllll0ee0-&oooX",
"---<4-&&&$ollllllllllllllllllllllllllllllllllllllllllllllllllllllllllllllllllllllllllllllllllllllllllllllllllllllllll6ere0=$oooX",
"----2-#$$o&llllllllllllllllllllllllllllllllllllllllllllllllllllllllllllllllllllllllllllllllllllllllllllllllllllllllllerew00-&oXX",
"002---&%&$$llllllllllllllllllllllllllllllllllllllllllllllllllllllllllllllllllllllllllllllllllllllllllllllllllllllllllqree2-&&ooo",
"000>-2=*--#+llllllllllllllllllllllllllllllllllllllllllllllllllllllllllllllllllllllllllllllllllllllllllllllllllllllll4esfr>$##ooo",
"-22-2->-&&&#lllllllllllllllllllllllllllllllllllllllllllllllllllllllllllllllllllllllllllllllllllllllllllllllllllllllleisee4o-#X.o",
"-----2-0%$-$ lllllllllllllllllllllllllllllllllllllllllllllllllllllllllllllllllllllllllllllllllllllllllllllllllllllllefsre-&$oXX@",
"2044->>-&$&#ollllllllllllllllllllllllllllllllllllllllllllllllllllllllllllllllllllllllllllllllllllllllllllllllllllllqssr02%$#oX.o",
"2-4=-0>0$%-&$llllllllllllllllllllllllllllllllllllllllllllllllllllllllllllllllllllllllllllllllllllllllllllllllllllllqrye5%#$&oooo",
"2>0-=->--#$&&&llllllllllllllllllllllllllllllllllllllllllllllllllllllllllllllllllllllllllllllllllllllllllllllllllll0eisr2%$#&oooO",
"-020-00-;&&&&&llllllllllllllllllllllllllllllllllllllllllllllllllllllllllllllllllllllllllllllllllllllllllllllllllll0esy6-#$#&oo&@",
"--5---00-%&-&o&lllllllllllllllllllllllllllllllllllllllllllllllllllllllllllllllllllllllllllllllllllllllllllllllllleiiiy4=#&#+&oo@",
"000e-$0-<-=&&#&lllllllllllllllllllllllllllllllllllllllllllllllllllllllllllllllllllllllllllllllllllllllllllllllllleefe64&$&&+&&o&",
"0-00-#----&$*#-&lllllllllllllllllllllllllllllllllllllllllllllllllllllllllllllllllllllllllllllllllllllllllllllllleypss6-&&@&$oo@&",
"9e00$#=0-&>$--oollllllllllllllllllllllllllllllllllllllllllllllllllllllllllllllllllllllllllllllllllllllllllllllllsppy6>--&&&%&o#&",
"005>&#&3>>&&$o+++llllllllllllllllllllllllllllllllllllllllllllllllllllllllllllllllllllllllllllllllllllllllllllllsffir0-&#&&#&-&#&",
"2-00%#$;;&&&&+&Oo&lllllllllllllllllllllllllllllllllllllllllllllllllllllllllllllllllllllllllllllllllllllllllllllsfay6=$--oo&&#&&-",
"205>%@%&->&&&&oo$$llllllllllllllllllllllllllllllllllllllllllllllllllllllllllllllllllllllllllllllllllllllllllllraasr<%#&-o$$-$&&#",
"2ee0=##&$>&&#&#&-+olllllllllllllllllllllllllllllllllllllllllllllllllllllllllllllllllllllllllllllllllllllllllleifae0-$##Xo*&**##&",
"0ee0=#&&o&&-&&;&&&##llllllllllllllllllllllllllllllllllllllllllllllllllllllllllllllllllllllllllllllllllllllllssafer0-###.o&=-*##*",
"4e00=*&&&*$*>-&#&%#$olllllllllllllllllllllllllllllllllllllllllllllllllllllllllllllllllllllllllllllllllllllllsfffe0,&&#&o#-=--&-&",
"2052=#&&-&&;-,-&$&&-;llllllllllllllllllllllllllllllllllllllllllllllllllllllllllllllllllllllllllllllllllllllajffs6-&#&ooo&=->--&&",
"0552=$##$&&-;--;&:;%*&llllllllllllllllllllllllllllllllllllllllllllllllllllllllllllllllllllllllllllllllllllifdpsw2&#&&...&&-2-$o-",
"455-=$$$-$e$$$-$&;&%;&&lllllllllllllllllllllllllllllllllllllllllllllllllllllllllllllllllllllllllllllllllleffkf0-%#o#oX.o=>36$oo#",
"0e42&&o&-e&O+&--&%@&-&=-llllllllllllllllllllllllllllllllllllllllllllllllllllllllllllllllllllllllllllllllrfffar5%$#oXXXoo>4460&&-",
"29e0-4&&0$oo+&$-%&%@-#-&=llllllllllllllllllllllllllllllllllllllllllllllllllllllllllllllllllllllllllllllejfffs0>#&&oXXooo>40>%$##",
"25e63&&2-#$&-&*-:&;*o&o-&&llllllllllllllllllllllllllllllllllllllllllllllllllllllllllllllllllllllllllllsfkfffe0-@&oXX-&o$2200=#o&",
"4044-&&&%$--00&&o&o&$o+&--&llllllllllllllllllllllllllllllllllllllllllllllllllllllllllllllllllllllllllsfjffpe0-&oooXO&0&o-250-&o$",
"04e--oo&-;$-O+e$-&$$-$$$&&--llllllllllllllllllllllllllllllllllllllllllllllllllllllllllllllllllllllllssfsdie--&&&o.X#oX0O--6-&#$&",
"-052%&&o@$-$&O#-&&&$-&-&-&-0-+lllllllllllllllllllllllllllllllllllllllllllllllllllllllllllllllllllllspdffie-&oo#ooX+#oX#--05--&oX",
"-002%#OO#&;-%O&&&&&#$$&-&-&-$-&llllllllllllllllllllllllllllllllllllllllllllllllllllllllllllllllllirfspfs0-&o##X oooo@o#@2e00%oo$",
"-e50>&$&%&e%;$&$oo0&$$$&-$*$-&-&lllllllllllllllllllllllllllllllllllllllllllllllllllllllllllllllltisfstee0-oo##X.X&0oo-%&-2e0%&o#",
"-e0-&&&&$i&#+&&-#eo+-$$$#%$&<0-%%&lllllllllllllllllllllllllllllllllllllllllllllllllllllllllllllypsisy00-&o&&XXo@+0OO#$%&-ee-&#$$",
"-ee00@o$-@X+O&--0OO&-$$$&+$----%$#&llllllllllllllllllllllllllllllllllllllllllllllllllllllllllsfiatst00-o&%&ooooo-oXO@&-o-ee0%-&$",
"-e900##&O+OO0-%$OOo$0&&--#-#---&$&&%*llllllllllllllllllllllllllllllllllllllllllllllllllllllesfffpee52-#o&ooX&&&#X.+&e-&&<0e0-##&",
"<600--&&OOOO-s-%o&o;-e&o*&&Oo#o:;-%----lllllllllllllllllllllllllllllllllllllllllllllllllleeweaeiu0>0-&&o-X.o#0-#&Oo%-e0%0e5--$oo",
"<400;##o:#;$OOe$O;--OO-X#&-&#$&o12%-7-%&&llllllllllllllllllllllllllllllllllllllllllllll40sfisrr095%&:o#o Xo+Ooe-$$%-X+e$0542-&&#",
"-00<&$+&%;--@O&-o&&$&X&-&&&&&$&-3o-%30;----llllllllllllllllllllllllllllllllllllllllll0esssfser003&&#%&Xooo&-oo&-#%--Oo&0250-&#$#",
"<00<&&&&&;&0%#X&;;&-o&XXo#o&$$o$$$#&--=0000e0-llllllllllllllllllllllllllllllllllll0eeyeyepeeq<&*##oo&o X&&--*-&O&%&%&O&&0w02=#o&",
"<00<&$&%$-t-&O&&&oe&O:OOOo-o&&$&$&-&%%=---000e->=llllllllllllllllllllllllllllll005eeeiisre00<-#&@&&& o+&o&e--;-$&&s$&O&-eeee---&",
"-0<-&&oo&t&o#%-%-s&o+&o&#0+Xo&$&##-*-&=---50e00>324--llllllllllllllllllllll005eresyeee00<0*=&&$o##oXX##ooe$o---&#so&#O&#6ee03-&&",
",54<=o&o-&O+#&-&0&X&O&&&-OXooO&&-o-&#-&---;-0<0<00224-20--<0004<q<<04-00-er00esrssy6e00--&#&o#&&&..oX&&&0o#&---$0-#&&&%%eese-*#$",
"000>&&&$&-&->00250--<<<-->-0&----&&##&-#&-&<-><0eee0520500005e040ee500e6ee0erserwe00-22&o+&&+o&oo&&#*--=<0-00220eeee46etesse>&o$",
"2-2&&&@0-02-0e0ee00055505-et0<<<----<&&&-&-$$>---<ee4000005500009050006seew0eeeee0--%%$o#o&-&o#&&---0000e00555e00eeew0sessiw-o&o",
"--0-%o$&->*--00ee504565055e0e0-00-&0-&-&&&0&-&-&-&0->--0600500000<00406ee6>00-000%&&##$o$#&&&&&----0-00e0eeee0e0e0ee600eiss5&&oo",
"&--%$$&%&&&-2-000<<-<-00000000>4->=--&#&#&&&&&$&-$--#$--<0--->>---02<<-<0--&*&-&&##o#o&&&&&&&&$=-%*0002-4-000-<00<00><00we0-&#$o",
"%00&&o&$&$&&--&<-=&>;&>-->---007--&&*oo+++&#&&&$-&&&$$*;--&>-&-==--&&&-=&=&&&-+&&#o##oXoo#oo&&-:&---%&-%*=-*---=----=>>>0--%&o&$",
"-=o&OooOO&&--&&&&-+o&&&#&$&-&&&&$&&$&#oO+o+Xoo#$&&-&+###$&&&&#&$&*&&+&&O#&&&&&o&&o+oXXoXoXo&&&&&#&&#&#o#$&$$o&$*&&&-#$$$$&&&&#o#",
"-$%o$o&$&&$&%&#$---&&o-&$&&&-o&&&&oOo#&&&&o+oXoooo&&#&&+$+oo&$+&&##o$o&#&o#&%&#ooooooo&oXoo&&o&&&&oOo#-&-&&$o$&$&o&&#&oo#Ooo&$o&",
"-&&o&&-&&$$&&;&-&-&&##0-$&-&&o$-#&&&##&&&&&&o+oooo..OXooo&o&o-&%&&ooo&&&o#XoXXooXooooX&&@&&&&o$&$&&&$$&&--&&&$&&&-o+$#oOo&o&o&&$"
};
